<svg xmlns="http://www.w3.org/2000/svg" width="512" height="512" viewBox="0 0 512 512">
  <defs>
    <style>
      .cls-1 {
        fill: #99ff00;
      }

      .cls-2 {
        fill: #000;
        fill-rule: evenodd;
      }
    </style>
  </defs>
  <rect id="Background" class="cls-1" width="512" height="512"/>
  <path id="Stylized_E" data-name="Stylized E" class="cls-2" d="M129.56,233.19s-4.63-22.18,4.63-44.17c9.35-22.21,39.06-21.72,77.58-19.49,42.58,2.46,118.89,1.6,151.81,1.13,32.92-.47,19.33,40.16-3.86,40.16H185.34C153.28,210.82,143.46,220.08,129.56,233.19Zm202,34.42s26.85-23.75,54.12-25.26c27.27-1.5,14.65,37.38-5.38,37.38H187.35C158,279.73,141.6,303.49,129.56,317.8Zm43.68,142s26.85-23.75,54.12-25.26c27.27-1.5,14.65,37.38-5.38,37.38H187.35C158,424.3,141.6,448.06,129.56,462.37Z"/>
</svg>
